<svg xmlns="http://www.w3.org/2000/svg" width="51.719" height="47.78" viewBox="0 0 51.719 47.78">
  <defs>
    <style>
      .cls-1 {
        fill: #1b72ff;
        fill-rule: evenodd;
      }
    </style>
  </defs>
  <path class="cls-1" d="M396.072,4573.69h-48.68a1.512,1.512,0,0,0-1.509,1.51,8.562,8.562,0,0,0,8.549,8.55h34.6a8.562,8.562,0,0,0,8.549-8.55A1.512,1.512,0,0,0,396.072,4573.69Zm-14.785-34.06v2.89h2.9Zm6.538-2.14a1.512,1.512,0,0,0-1.509-1.51h-4.4l5.913,5.92v-4.41Zm0,8.05h-8.047a1.511,1.511,0,0,1-1.508-1.51v-8.05H356.947a1.512,1.512,0,0,0-1.509,1.51v33.18h32.387v-25.13Zm-24.844-6.44h9.254a1.51,1.51,0,0,1,0,3.02h-9.254A1.51,1.51,0,0,1,362.981,4539.1Zm0,6.03h9.254a1.51,1.51,0,0,1,0,3.02h-9.254A1.51,1.51,0,0,1,362.981,4545.13Zm17.3,22.63h-17.3a1.51,1.51,0,0,1,0-3.02h17.3A1.51,1.51,0,0,1,380.281,4567.76Zm0-6.03h-17.3a1.51,1.51,0,0,1,0-3.02h17.3A1.51,1.51,0,0,1,380.281,4561.73Zm0-6.04h-17.3a1.505,1.505,0,1,1,0-3.01h17.3A1.505,1.505,0,1,1,380.281,4555.69Zm13.78-13.09a1.512,1.512,0,0,0-1.509-1.51h-1.71v29.58h3.219V4542.6Zm-41.641-1.51h-1.508a1.512,1.512,0,0,0-1.509,1.51v28.07h3.017v-29.58Z" transform="translate(-345.875 -4535.97)"/>
</svg>
