<?xml version="1.0" encoding="utf-8"?>
<!-- Generator: Adobe Illustrator 25.4.6, SVG Export Plug-In . SVG Version: 6.00 Build 0)  -->
<svg version="1.1" id="PCA" xmlns="http://www.w3.org/2000/svg"
	xmlns:xlink="http://www.w3.org/1999/xlink" x="0px" y="0px"
	viewBox="0 0 577.5 379.6" style="enable-background:new 0 0 577.5 379.6;" xml:space="preserve">
<style type="text/css">
	.st0{fill:#E7732C;}
	.st1{fill:#414141;}
</style>
<g>
	<polygon class="st0" points="0,267 32.6,267 32.6,149.7 68.1,149.7 96.3,118 0,118 	"/>
	<path class="st1" d="M132.1,76.8l26.5-30.1c0,0-16.6-47-69.1-46.7C37.1,0.3,0,0,0,0v32.5h90.2C90.2,32.5,133.3,37.1,132.1,76.8z"/>
	<path class="st1" d="M348.7,0.1h-60.4c0,0-71.5-4.6-114.8,60.3S122,137.2,122,137.2l65.8-52.9c0,0,56.1-51.2,100.5-51.2
		s60.4-0.5,60.4-0.5V0.1z"/>
	<path class="st0" d="M330.6,267c0,0,34.5,0.6-50,0s-118-79.8-118-79.8l-7.7-24.2l28.9-27.8c0,0,26.3,99.5,108.7,99.5s53.6,0,53.6,0
		L330.6,267z"/>
	<polygon class="st1" points="454.3,0.1 473.4,38.4 366.7,267 330.6,267 	"/>
	<polygon class="st0" points="490.9,76.8 473.4,118 541.9,267 577.5,267 	"/>
	<path class="st1" d="M27.6,302.3c0,1.7-0.3,3.2-0.9,4.5c-0.6,1.3-1.3,2.4-2.1,3.3s-1.6,1.7-2.5,2.2c-0.8,0.5-1.5,0.9-2,1.1
		s-1.2,0.4-2.1,0.7c-0.9,0.3-1.9,0.4-3,0.6c-1.1,0.1-2.3,0.1-3.6,0c-1.3-0.1-2.5-0.4-3.7-0.9v16.7c0,0.7,0.2,1.3,0.5,1.7
		c0.3,0.4,0.7,0.8,1.3,1.1H0.2c0.5-0.3,0.9-0.7,1.2-1.1c0.4-0.4,0.5-1,0.5-1.7v-37c0-0.7-0.2-1.3-0.5-1.8c-0.4-0.5-0.8-0.8-1.2-1.1
		h12c3.1,0,5.7,0.4,7.7,1.1c2,0.8,3.6,1.7,4.8,2.9c1.1,1.1,2,2.4,2.4,3.8C27.3,299.8,27.6,301.1,27.6,302.3z M21.4,302.4
		c0-2.9-0.8-5.1-2.4-6.8c-1.6-1.6-4-2.5-7.2-2.5c-0.7,0-1.3,0-1.9,0c-0.5,0-1,0-1.3,0h-1v18.5c0.7,0.3,1.7,0.4,3.1,0.4
		c0.8,0,1.9-0.1,3.1-0.3c1.2-0.2,2.4-0.7,3.5-1.3c1.1-0.7,2.1-1.7,2.9-3C21,306.3,21.4,304.6,21.4,302.4z M46.7,333.9
		c-0.7-0.5-1.2-1-1.6-1.5c-0.4-0.6-0.6-1.6-0.6-3.1c-0.5,0.5-1.1,1-1.7,1.6c-0.6,0.5-1.4,1-2.2,1.5c-0.8,0.4-1.7,0.8-2.7,1.1
		c-1,0.3-2,0.4-3.1,0.4c-1.4,0-2.5-0.3-3.5-0.8s-1.7-1.2-2.3-2s-1-1.6-1.3-2.5s-0.4-1.6-0.4-2.3c0-1.2,0.3-2.4,0.9-3.7
		c0.6-1.3,1.7-2.4,3.3-3.4c0.8-0.5,1.9-0.9,3.1-1.3c1.3-0.4,2.5-0.8,3.8-1.2c1.3-0.4,2.4-0.8,3.5-1.2c1.1-0.4,1.8-0.8,2.3-1.3
		c0,0,0.1-0.2,0.1-0.5s0.1-0.6,0.1-0.8c0-0.3,0-0.6,0-0.8c0-0.3,0-0.4,0-0.5c0-0.7-0.1-1.3-0.3-2c-0.2-0.6-0.5-1.2-0.9-1.8
		c-0.4-0.5-1-0.9-1.7-1.3c-0.7-0.3-1.5-0.5-2.5-0.5c-1.3,0-2.5,0.2-3.4,0.7c-1,0.5-1.8,1.1-2.5,1.9s-1.3,1.7-1.8,2.7
		s-0.9,2.1-1.3,3.2l-0.1-7.8c0.6-0.4,1.2-0.8,1.8-1.1c0.6-0.4,1.3-0.7,2.1-1s1.6-0.5,2.6-0.7s2.1-0.3,3.3-0.3c0.9,0,1.9,0.1,3.1,0.3
		c1.1,0.2,2.2,0.6,3.2,1.2s1.8,1.5,2.5,2.6c0.7,1.1,1,2.6,1,4.4v16.8c0,0.8,0.1,1.4,0.2,1.9s0.7,0.8,1.7,1L46.7,333.9z M44.4,316.9
		c-1,0.5-2,0.9-3,1.2c-1,0.3-2.2,0.7-3.7,1.2s-2.7,1.3-3.7,2.1c-1,0.9-1.5,2.1-1.5,3.7c0,1.7,0.4,3,1.3,3.9c0.9,0.9,2,1.3,3.5,1.3
		s2.9-0.3,4.1-0.9c1.2-0.6,2.2-1.4,3.1-2.3L44.4,316.9L44.4,316.9z M80.8,304.5c-0.8,0.3-1.4,0.7-1.9,1.1s-1,1-1.3,1.9
		c-1.1,2.6-2.4,5.6-3.8,8.9c-1.5,3.3-3,6.7-4.6,10.3c-1.6,3.6-3.2,7.2-4.8,10.9c-1.6,3.7-3.1,7.2-4.4,10.5h-5.6
		c0.7-0.3,1.2-0.7,1.7-1c0.4-0.4,0.8-0.7,1.1-1.1c0.3-0.4,0.6-0.8,0.8-1.2c0.2-0.4,0.5-0.9,0.7-1.4c0.8-1.6,1.7-3.4,2.7-5.3
		s1.9-4,2.9-6l-9.9-24.6c-0.3-0.6-0.5-1-0.7-1.3s-0.4-0.6-0.7-0.8c-0.2-0.2-0.5-0.3-0.8-0.4s-0.6-0.2-1.1-0.4h10.8
		c-0.4,0.1-0.7,0.3-1,0.4c-0.3,0.2-0.5,0.4-0.7,0.6c-0.2,0.3-0.3,0.6-0.3,0.9c0,0.4,0.1,0.9,0.3,1.4l6.8,17.8c1.6-3.5,3-6.8,4.4-10
		c1.3-3.2,2.4-5.8,3.2-7.9c0.4-1.1,0.4-1.9-0.2-2.4c-0.5-0.5-1.2-0.8-1.9-1h8.3V304.5z M117.6,333.3c0.5-0.3,0.9-0.6,1.2-0.9
		c0.4-0.3,0.5-0.8,0.5-1.5v-16.8c0-0.9-0.1-1.8-0.3-2.6c-0.2-0.8-0.6-1.6-1.1-2.2s-1.2-1.1-2-1.5s-1.9-0.6-3.1-0.6
		c-1.3,0-2.5,0.4-3.7,1.2c-1.2,0.8-2.2,1.7-3,2.8c0.1,0.2,0.1,0.5,0.1,0.9v18.8c0,0.7,0.1,1.2,0.4,1.5s0.7,0.6,1.2,0.9h-8.7
		c0.5-0.3,0.9-0.6,1.2-0.9s0.4-0.8,0.4-1.5v-17.1c0-0.9-0.1-1.7-0.3-2.5c-0.2-0.8-0.6-1.5-1.1-2.1s-1.2-1.1-2-1.4
		c-0.8-0.4-1.9-0.5-3.1-0.5c-1.5,0-2.7,0.4-3.8,1.1c-1.1,0.7-1.9,1.4-2.5,2.1V331c0,0.7,0.2,1.2,0.5,1.5s0.7,0.6,1.2,0.9h-8.8
		c0.5-0.3,0.9-0.6,1.2-0.9s0.4-0.8,0.4-1.5v-23.3c0-1-0.2-1.6-0.7-1.8c-0.5-0.3-1-0.5-1.5-0.7l7.7-1.5l-0.1,4.3
		c0.4-0.3,0.9-0.7,1.5-1.2c0.6-0.5,1.3-1,2.1-1.4c0.8-0.5,1.6-0.9,2.6-1.2c0.9-0.3,2-0.5,3-0.5c1.8,0,3.5,0.5,5.1,1.4
		c1.6,0.9,2.8,2.3,3.4,4.1c0.5-0.6,1.1-1.3,1.8-1.9c0.7-0.7,1.5-1.3,2.3-1.8c0.9-0.5,1.8-0.9,2.8-1.3c1-0.3,2-0.5,3-0.5
		s2.1,0.2,3.2,0.5c1.1,0.3,2.1,0.9,3,1.6s1.6,1.6,2.2,2.7c0.6,1.1,0.8,2.4,0.8,3.8V331c0,0.7,0.1,1.2,0.4,1.5
		c0.3,0.3,0.7,0.6,1.2,0.9h-8.6L117.6,333.3L117.6,333.3z M135,316.6v1.8c0,1.6,0.2,3.1,0.6,4.5c0.4,1.4,1,2.7,1.9,3.8
		c0.8,1.1,1.9,2,3.1,2.6c1.3,0.6,2.7,1,4.4,1c1.1,0,2.2-0.2,3.2-0.6c1.1-0.4,2.1-0.9,3-1.5s1.7-1.3,2.4-2.1c0.7-0.8,1.1-1.5,1.4-2.3
		c0,1.3-0.4,2.5-1,3.8c-0.6,1.2-1.4,2.3-2.4,3.2c-1,0.9-2.2,1.7-3.7,2.3c-1.4,0.6-3,0.9-4.6,0.9c-2.2,0-4.2-0.4-5.9-1.3
		c-1.8-0.9-3.3-2-4.5-3.4s-2.2-3-2.8-4.8c-0.7-1.8-1-3.6-1-5.5c0-1.7,0.3-3.5,0.9-5.3c0.6-1.8,1.5-3.4,2.7-4.9s2.7-2.7,4.5-3.6
		s3.9-1.4,6.3-1.4c1.3,0,2.7,0.2,4.1,0.7c1.4,0.5,2.7,1.2,3.8,2.3c1.1,1,2.1,2.4,2.8,4c0.7,1.7,1.1,3.6,1.1,5.9H135V316.6z
		 M149.5,314.3c0-1.5-0.2-2.8-0.6-3.9c-0.4-1.1-0.9-1.9-1.5-2.6s-1.3-1.2-2.2-1.5c-0.8-0.3-1.7-0.5-2.5-0.5c-1.1,0-2.1,0.2-3,0.7
		s-1.6,1.1-2.3,1.9c-0.6,0.8-1.1,1.7-1.5,2.7s-0.6,2-0.8,3.1L149.5,314.3L149.5,314.3z M177.2,333.3c0.5-0.3,0.9-0.6,1.2-0.9
		s0.4-0.8,0.4-1.5v-16.3c0-0.9-0.1-1.7-0.3-2.6s-0.5-1.6-1-2.3c-0.5-0.7-1.2-1.3-2-1.7c-0.9-0.4-2-0.7-3.3-0.7s-2.6,0.4-3.7,1.1
		c-1.1,0.7-2,1.4-2.6,2.2v20.3c0,0.7,0.1,1.2,0.4,1.5c0.3,0.3,0.7,0.6,1.2,0.9h-8.7c0.5-0.3,0.9-0.6,1.2-0.9s0.4-0.8,0.4-1.5v-23.2
		c0-1-0.2-1.6-0.6-1.9c-0.4-0.3-0.9-0.5-1.4-0.8l7.5-1.4v4.4c0.3-0.4,0.8-0.8,1.4-1.3c0.6-0.5,1.3-1,2.1-1.5s1.7-0.9,2.6-1.2
		c0.9-0.3,1.9-0.5,2.9-0.5c1.2,0,2.3,0.2,3.4,0.6c1.1,0.4,2.1,0.9,3,1.7c0.9,0.8,1.6,1.7,2.1,2.8c0.5,1.1,0.8,2.3,0.8,3.7v18.5
		c0,0.7,0.2,1.2,0.5,1.5s0.7,0.6,1.2,0.9L177.2,333.3L177.2,333.3z M206.2,329.6c0,0.4-0.2,0.9-0.5,1.3c-0.3,0.5-0.8,0.9-1.3,1.4
		c-0.6,0.4-1.2,0.8-2,1.1c-0.8,0.3-1.6,0.4-2.5,0.4c-2.5,0-4.6-0.8-6.2-2.3c-1.6-1.5-2.5-3.8-2.5-6.8V307h-2.7l8.1-8.4v5.8h8.6v2.6
		h-8.8v17.7c0,1.5,0.2,2.6,0.6,3.5c0.4,0.9,0.9,1.5,1.5,2c0.6,0.4,1.2,0.7,1.8,0.8c0.6,0.1,1.2,0.2,1.7,0.2c0.6,0,1.1-0.1,1.6-0.2
		c0.4-0.1,0.8-0.2,1.1-0.4c0.3-0.1,0.5-0.3,0.8-0.5C205.8,330,206,329.8,206.2,329.6z M259.7,320.9c0,0,0,0.4,0,1.3
		c-0.1,0.9-0.1,1.9-0.2,3c-0.1,1.3-0.2,2.8-0.3,4.4c-2.6,1.6-5.3,2.7-8.1,3.3c-2.8,0.6-5.3,0.9-7.7,0.9c-3.1,0-6-0.5-8.9-1.6
		c-2.8-1-5.3-2.5-7.4-4.4c-2.1-1.9-3.8-4.2-5.1-6.9c-1.3-2.7-1.9-5.6-1.9-8.9c0-2.7,0.5-5.3,1.5-7.9s2.5-5,4.5-7
		c2-2.1,4.5-3.8,7.5-5.1c3-1.3,6.5-1.9,10.5-1.9c2.6,0,5.1,0.3,7.5,1c2.4,0.6,4.8,1.5,7.3,2.6c0.1,1.8,0.2,3.4,0.3,4.8
		c0,0.6,0.1,1.2,0.1,1.7c0,0.6,0.1,1.1,0.1,1.5s0.1,0.8,0.1,1c0,0.3,0,0.4,0,0.3c-1-2.3-2.2-4.1-3.6-5.5c-1.4-1.4-2.8-2.4-4.2-3.1
		c-1.4-0.7-2.8-1.2-4-1.3c-1.3-0.2-2.3-0.3-3-0.3c-3,0-5.6,0.5-7.9,1.5c-2.3,1-4.1,2.3-5.6,4s-2.6,3.7-3.4,5.9
		c-0.8,2.2-1.2,4.6-1.2,7.2c0,2.3,0.3,4.6,1,6.9c0.6,2.3,1.7,4.5,3.1,6.4c1.4,1.9,3.3,3.5,5.6,4.7s5.1,1.8,8.3,1.8
		c0.7,0,1.7-0.1,2.9-0.2c1.2-0.1,2.6-0.5,4-1.2c1.4-0.6,2.9-1.6,4.3-3C257.1,325.4,258.5,323.4,259.7,320.9z M268.6,316.6v1.8
		c0,1.6,0.2,3.1,0.6,4.5s1,2.7,1.9,3.8c0.8,1.1,1.9,2,3.1,2.6c1.3,0.6,2.7,1,4.4,1c1.1,0,2.2-0.2,3.2-0.6c1.1-0.4,2.1-0.9,3-1.5
		s1.7-1.3,2.4-2.1c0.7-0.8,1.1-1.5,1.4-2.3c0,1.3-0.4,2.5-1,3.8c-0.6,1.2-1.4,2.3-2.4,3.2c-1,0.9-2.2,1.7-3.7,2.3
		c-1.4,0.6-3,0.9-4.6,0.9c-2.2,0-4.2-0.4-5.9-1.3c-1.8-0.9-3.3-2-4.5-3.4s-2.2-3-2.8-4.8c-0.7-1.8-1-3.6-1-5.5
		c0-1.7,0.3-3.5,0.9-5.3s1.5-3.4,2.7-4.9s2.7-2.7,4.5-3.6s3.9-1.4,6.3-1.4c1.3,0,2.7,0.2,4.1,0.7s2.7,1.2,3.8,2.3
		c1.1,1,2.1,2.4,2.8,4c0.7,1.7,1.1,3.6,1.1,5.9h-20.3V316.6z M283.1,314.3c0-1.5-0.2-2.8-0.6-3.9s-0.9-1.9-1.5-2.6s-1.3-1.2-2.2-1.5
		c-0.8-0.3-1.7-0.5-2.5-0.5c-1.1,0-2.1,0.2-3,0.7s-1.6,1.1-2.3,1.9c-0.6,0.8-1.1,1.7-1.5,2.7s-0.6,2-0.8,3.1L283.1,314.3
		L283.1,314.3z M310.8,333.3c0.5-0.3,0.9-0.6,1.2-0.9c0.3-0.3,0.4-0.8,0.4-1.5v-16.3c0-0.9-0.1-1.7-0.3-2.6c-0.2-0.9-0.5-1.6-1-2.3
		c-0.5-0.7-1.2-1.3-2-1.7c-0.9-0.4-2-0.7-3.3-0.7s-2.6,0.4-3.7,1.1s-2,1.4-2.6,2.2v20.3c0,0.7,0.1,1.2,0.4,1.5s0.7,0.6,1.2,0.9h-8.6
		c0.5-0.3,0.9-0.6,1.2-0.9c0.3-0.3,0.4-0.8,0.4-1.5v-23.2c0-1-0.2-1.6-0.6-1.9s-0.9-0.5-1.4-0.8l7.5-1.4v4.4
		c0.3-0.4,0.8-0.8,1.4-1.3s1.3-1,2.1-1.5c0.8-0.5,1.7-0.9,2.6-1.2c0.9-0.3,1.9-0.5,2.9-0.5c1.2,0,2.3,0.2,3.4,0.6s2.1,0.9,3,1.7
		c0.9,0.8,1.6,1.7,2.1,2.8c0.5,1.1,0.8,2.3,0.8,3.7v18.5c0,0.7,0.2,1.2,0.5,1.5s0.7,0.6,1.2,0.9L310.8,333.3L310.8,333.3z
		 M339.8,329.6c0,0.4-0.2,0.9-0.5,1.3c-0.3,0.5-0.8,0.9-1.3,1.4c-0.6,0.4-1.2,0.8-2,1.1c-0.8,0.3-1.6,0.4-2.5,0.4
		c-2.5,0-4.6-0.8-6.2-2.3s-2.5-3.8-2.5-6.8V307h-2.7l8.1-8.4v5.8h8.6v2.6H330v17.7c0,1.5,0.2,2.6,0.6,3.5s0.9,1.5,1.5,2
		c0.6,0.4,1.2,0.7,1.8,0.8c0.6,0.1,1.2,0.2,1.7,0.2c0.6,0,1.1-0.1,1.6-0.2c0.4-0.1,0.8-0.2,1.1-0.4c0.3-0.1,0.5-0.3,0.8-0.5
		C339.4,330,339.6,329.8,339.8,329.6z M345.4,316.6v1.8c0,1.6,0.2,3.1,0.6,4.5s1,2.7,1.9,3.8c0.8,1.1,1.9,2,3.1,2.6
		c1.3,0.6,2.7,1,4.4,1c1.1,0,2.2-0.2,3.2-0.6c1.1-0.4,2.1-0.9,3-1.5s1.7-1.3,2.4-2.1c0.7-0.8,1.1-1.5,1.4-2.3c0,1.3-0.4,2.5-1,3.8
		c-0.6,1.2-1.4,2.3-2.4,3.2c-1,0.9-2.2,1.7-3.7,2.3c-1.4,0.6-3,0.9-4.6,0.9c-2.2,0-4.2-0.4-5.9-1.3c-1.8-0.9-3.3-2-4.5-3.4
		s-2.2-3-2.8-4.8c-0.7-1.8-1-3.6-1-5.5c0-1.7,0.3-3.5,0.9-5.3s1.5-3.4,2.7-4.9s2.7-2.7,4.5-3.6s3.9-1.4,6.3-1.4
		c1.3,0,2.7,0.2,4.1,0.7s2.7,1.2,3.8,2.3c1.1,1,2.1,2.4,2.8,4c0.7,1.7,1.1,3.6,1.1,5.9h-20.3V316.6z M360,314.3
		c0-1.5-0.2-2.8-0.6-3.9s-0.9-1.9-1.5-2.6s-1.3-1.2-2.2-1.5c-0.8-0.3-1.7-0.5-2.5-0.5c-1.1,0-2.1,0.2-3,0.7s-1.6,1.1-2.3,1.9
		c-0.6,0.8-1.1,1.7-1.5,2.7s-0.6,2-0.8,3.1L360,314.3L360,314.3z M385.4,310c-0.5-0.6-1-1.1-1.6-1.4c-0.6-0.4-1.3-0.5-2.1-0.5
		c-1.2,0-2.3,0.4-3.2,1.1c-0.9,0.8-1.7,1.5-2.3,2.3v19.4c0,0.7,0.2,1.2,0.5,1.5s0.7,0.6,1.2,0.9h-8.7c0.5-0.3,0.9-0.6,1.2-0.9
		c0.3-0.3,0.4-0.8,0.4-1.5v-23.2c0-1-0.2-1.6-0.7-1.8c-0.5-0.3-1-0.5-1.5-0.7l7.7-1.5v5.5c0.3-0.5,0.8-1.1,1.3-1.8
		c0.5-0.6,1.1-1.3,1.8-1.8c0.6-0.6,1.3-1,1.9-1.4s1.2-0.5,1.8-0.5c0.8,0,1.2,0,1.5,0.1c0.2,0.1,0.5,0.2,0.9,0.4L385.4,310L385.4,310
		z M404,300.1h5.3c0.4,0,0.5,0.2,0.4,0.7l-0.2,1.5c0,0.5-0.3,0.7-0.8,0.7h-5.2l-5.3,29.6c0,0.5-0.3,0.7-0.7,0.7h-1.8
		c-0.4,0-0.6-0.2-0.6-0.7l5.2-29.6h-3.2c-0.4,0-0.6-0.2-0.6-0.7l0.2-1.5c0.1-0.5,0.4-0.7,0.8-0.7h3.2l0.4-2.5
		c0.5-3.1,1.4-5.3,2.6-6.6c1.2-1.3,2.9-2,5.3-2c1,0,1.8,0.1,2.3,0.2c0.3,0.1,0.4,0.4,0.4,0.9l0.1,1.2c-0.1,0.5-0.4,0.8-0.9,0.6
		c-0.1,0-0.4,0-0.8,0s-0.7,0-0.9,0c-1.5,0-2.6,0.4-3.3,1.3c-0.6,0.9-1.2,2.4-1.5,4.7L404,300.1z M411.7,333.8
		c-5.4,0-8.1-3.2-8.1-9.6c0-2.1,0.3-4.6,0.8-7.5c1-5.8,2.6-10.2,4.5-12.9c2-2.8,4.7-4.2,8.2-4.2c5.3,0,8,3.2,8,9.7
		c0,2.3-0.2,4.8-0.7,7.4c-1,5.8-2.6,10.2-4.6,12.9C417.8,332.4,415.1,333.8,411.7,333.8z M406.8,323.9c0,4.7,1.7,7,5,7
		c2.4,0,4.3-1.1,5.8-3.4s2.6-5.9,3.5-10.8c0.5-3.2,0.8-5.6,0.8-7.1c0-4.8-1.7-7.1-5.1-7.1c-2.4,0-4.3,1.1-5.7,3.4
		c-1.4,2.3-2.6,5.9-3.5,10.9C407.1,319.9,406.8,322.3,406.8,323.9z M427.3,300.8c0.1-0.5,0.4-0.7,0.9-0.7h1.8c0.4,0,0.6,0.2,0.5,0.7
		l-0.8,4.8c0.7-1.6,1.8-3,3.3-4.2c1.5-1.1,3.2-1.7,5-1.7c0.4,0,0.7,0.1,0.8,0.2c0.1,0.1,0.1,0.3,0.1,0.6l-0.3,2
		c-0.1,0.5-0.3,0.7-0.8,0.7c-0.1,0-0.3,0-0.6,0c-0.3,0-0.6,0-0.7,0c-1.8,0-3.4,0.9-5,2.8s-2.6,4.3-3.1,7.3l-3.4,19.3
		c-0.1,0.5-0.4,0.7-0.8,0.7h-1.7c-0.5,0-0.7-0.2-0.6-0.7L427.3,300.8z"/>
	<path class="st0" d="M571.3,360.2l-1.8,10.1c-0.1,0.4,0,0.7,0.1,0.8c0.1,0.2,0.3,0.3,0.5,0.5h-4.7c0.3-0.2,0.6-0.3,0.7-0.5
		c0.2-0.2,0.3-0.4,0.4-0.8l1.6-8.9c0.1-0.5,0.1-1,0.1-1.4c0-0.5-0.1-0.9-0.3-1.3s-0.5-0.7-0.9-0.9c-0.4-0.2-1-0.4-1.8-0.4
		c-0.7,0-1.4,0.2-2.1,0.6c-0.7,0.4-1.2,0.8-1.6,1.2l-2,11.1c-0.1,0.4,0,0.7,0.1,0.8c0.1,0.2,0.3,0.3,0.6,0.5h-4.7
		c0.3-0.2,0.5-0.3,0.7-0.5s0.3-0.4,0.4-0.8l2.2-12.7c0.1-0.5,0-0.9-0.2-1c-0.2-0.2-0.4-0.3-0.7-0.4l4.2-0.8l-0.4,2.4
		c0.2-0.2,0.5-0.4,0.9-0.7c0.4-0.3,0.8-0.5,1.3-0.8s1-0.5,1.5-0.6c0.5-0.2,1.1-0.3,1.6-0.3c0.6,0,1.2,0.1,1.8,0.3
		c0.6,0.2,1.1,0.5,1.5,0.9s0.7,0.9,0.9,1.5C571.4,358.8,571.4,359.5,571.3,360.2z M551.8,361c0-0.8-0.2-1.6-0.5-2.2
		s-0.7-1.1-1.2-1.5s-1.1-0.6-1.9-0.5c-0.8,0-1.4,0.2-2,0.7c-0.6,0.4-1.1,1-1.6,1.6c-0.4,0.7-0.8,1.4-1.1,2.3s-0.5,1.7-0.7,2.6
		c-0.1,0.9-0.2,1.8-0.1,2.6c0.1,0.8,0.3,1.5,0.5,2.2c0.3,0.6,0.7,1.1,1.2,1.4s1.1,0.5,1.8,0.5c0.8,0,1.4-0.2,2-0.6s1.1-0.9,1.6-1.6
		c0.5-0.6,0.8-1.4,1.1-2.2c0.3-0.8,0.5-1.7,0.6-2.7C551.8,362.6,551.9,361.8,551.8,361z M554.8,363.7c-0.2,1-0.5,2-1.1,3
		c-0.5,1-1.2,1.9-2,2.6c-0.8,0.8-1.7,1.4-2.7,1.9s-2.1,0.7-3.2,0.7c-1.3,0-2.4-0.3-3.3-0.8c-0.9-0.5-1.5-1.2-2-2s-0.7-1.7-0.8-2.6
		c-0.1-1-0.1-1.9,0.1-2.8c0.2-1,0.5-2,1-3s1.2-1.9,2-2.6c0.8-0.8,1.7-1.4,2.7-1.9s2.1-0.7,3.3-0.7c1.3,0,2.4,0.2,3.2,0.7
		s1.5,1.1,2,1.9s0.8,1.7,0.9,2.6C555,361.7,555,362.7,554.8,363.7z M534.1,356.3l4.3-0.8l-2.6,14.8c-0.1,0.4,0,0.7,0.1,0.8
		c0.1,0.2,0.3,0.3,0.6,0.5h-4.7c0.3-0.2,0.5-0.3,0.7-0.5s0.3-0.4,0.4-0.8l2.2-12.7c0.1-0.5,0-0.9-0.2-1
		C534.6,356.5,534.4,356.4,534.1,356.3z M539.5,350.3c-0.1,0.5-0.3,0.9-0.7,1.2c-0.4,0.3-0.8,0.5-1.3,0.5s-0.8-0.2-1.1-0.5
		s-0.4-0.8-0.3-1.2c0.1-0.5,0.3-0.8,0.7-1.2c0.4-0.3,0.8-0.5,1.3-0.5s0.8,0.2,1.1,0.5C539.5,349.4,539.6,349.8,539.5,350.3z
		 M533.1,355.9l-0.3,1.4H528l-1.7,9.6c-0.1,0.8-0.1,1.4,0,1.9s0.4,0.8,0.6,1.1c0.3,0.2,0.6,0.4,0.9,0.5c0.3,0.1,0.6,0.1,0.9,0.1
		c0.3,0,0.6,0,0.9-0.1c0.2-0.1,0.4-0.1,0.6-0.2c0.2-0.1,0.3-0.2,0.5-0.3c0.1-0.1,0.3-0.2,0.4-0.3c0,0.2-0.2,0.5-0.4,0.7
		c-0.2,0.3-0.5,0.5-0.9,0.8c-0.3,0.2-0.7,0.4-1.2,0.6c-0.4,0.2-0.9,0.2-1.4,0.2c-1.4,0-2.4-0.4-3.2-1.2c-0.8-0.8-1-2.1-0.7-3.7
		l1.7-9.7h-1.5l5.2-4.6l-0.6,3.1h5V355.9z M515.7,363.4c-0.6,0.2-1.3,0.4-2.1,0.6c-0.8,0.3-1.6,0.7-2.2,1.2c-0.6,0.5-1,1.2-1.2,2
		c-0.2,0.9-0.1,1.6,0.3,2.1c0.4,0.5,1,0.7,1.8,0.7s1.6-0.2,2.3-0.5s1.3-0.8,1.9-1.3l1-5.5C516.9,363,516.3,363.2,515.7,363.4z
		 M520.8,360.1l-1.6,9.2c-0.1,0.4-0.1,0.8-0.1,1c0,0.3,0.3,0.4,0.8,0.5l-2.8,1.2c-0.3-0.3-0.6-0.5-0.7-0.8c-0.1-0.3-0.1-0.9,0-1.7
		c-0.3,0.3-0.7,0.6-1.1,0.9c-0.4,0.3-0.9,0.6-1.4,0.8c-0.5,0.2-1,0.4-1.6,0.6s-1.1,0.2-1.7,0.2c-0.8,0-1.4-0.1-1.8-0.4
		c-0.5-0.3-0.8-0.7-1.1-1.1s-0.4-0.9-0.5-1.4s0-0.9,0-1.3c0.1-0.7,0.4-1.3,0.8-2c0.4-0.7,1.2-1.3,2.1-1.8c0.5-0.3,1.1-0.5,1.8-0.7
		s1.4-0.4,2.2-0.6c0.7-0.2,1.4-0.4,2-0.6s1.1-0.5,1.4-0.7c0,0,0.1-0.1,0.1-0.3c0-0.1,0.1-0.3,0.1-0.5s0.1-0.3,0.1-0.4s0-0.2,0-0.3
		c0.1-0.4,0.1-0.7,0-1.1c0-0.4-0.2-0.7-0.3-1c-0.2-0.3-0.5-0.5-0.8-0.7s-0.8-0.3-1.3-0.3c-0.7,0-1.4,0.1-1.9,0.4
		c-0.6,0.3-1.1,0.6-1.5,1c-0.5,0.4-0.9,0.9-1.2,1.5c-0.4,0.6-0.7,1.1-1,1.8l0.7-4.2c0.4-0.2,0.7-0.4,1.1-0.6
		c0.4-0.2,0.8-0.4,1.2-0.5c0.4-0.2,1-0.3,1.5-0.4s1.2-0.2,1.9-0.2c0.5,0,1,0.1,1.6,0.2s1.1,0.3,1.6,0.6c0.5,0.3,0.9,0.8,1.1,1.4
		C520.9,358.3,520.9,359.1,520.8,360.1z M506,355.9h4.2c-0.7,0.2-1.2,0.8-1.8,1.6l-8.8,14.4l-3.6-14.4c-0.1-0.4-0.3-0.8-0.4-1.1
		c-0.2-0.3-0.5-0.5-0.9-0.6h5.7c-0.5,0.1-0.8,0.3-1,0.6c-0.2,0.3-0.2,0.6-0.2,1l2.1,9.4l5.4-9.2c0.3-0.5,0.4-0.9,0.2-1.1
		C506.8,356.3,506.5,356.1,506,355.9z M491,361c0-0.8-0.2-1.6-0.5-2.2s-0.7-1.1-1.2-1.5s-1.1-0.6-1.9-0.5c-0.8,0-1.4,0.2-2,0.7
		c-0.6,0.4-1.1,1-1.6,1.6c-0.4,0.7-0.8,1.4-1.1,2.3c-0.3,0.9-0.5,1.7-0.7,2.6c-0.1,0.9-0.2,1.8-0.1,2.6c0.1,0.8,0.3,1.5,0.5,2.2
		c0.3,0.6,0.7,1.1,1.2,1.4s1.1,0.5,1.8,0.5c0.8,0,1.4-0.2,2-0.6s1.1-0.9,1.6-1.6c0.5-0.6,0.8-1.4,1.1-2.2c0.3-0.8,0.5-1.7,0.6-2.7
		C491,362.6,491,361.8,491,361z M494,363.7c-0.2,1-0.5,2-1.1,3c-0.5,1-1.2,1.9-2,2.6c-0.8,0.8-1.7,1.4-2.7,1.9s-2.1,0.7-3.2,0.7
		c-1.3,0-2.4-0.3-3.3-0.8s-1.5-1.2-2-2s-0.7-1.7-0.8-2.6c-0.1-1-0.1-1.9,0.1-2.8c0.2-1,0.5-2,1-3s1.2-1.9,2-2.6
		c0.8-0.8,1.7-1.4,2.7-1.9s2.1-0.7,3.3-0.7c1.3,0,2.4,0.2,3.2,0.7c0.8,0.5,1.5,1.1,2,1.9s0.8,1.7,0.9,2.6
		C494.2,361.7,494.2,362.7,494,363.7z M477,360.2l-1.8,10.1c-0.1,0.4,0,0.7,0.1,0.8c0.1,0.2,0.3,0.3,0.5,0.5h-4.7
		c0.3-0.2,0.6-0.3,0.8-0.5c0.2-0.2,0.3-0.4,0.4-0.8l1.6-8.9c0.1-0.5,0.1-1,0.1-1.4c0-0.5-0.1-0.9-0.3-1.3c-0.2-0.4-0.5-0.7-0.9-0.9
		c-0.4-0.2-1-0.4-1.8-0.4c-0.7,0-1.4,0.2-2.1,0.6s-1.2,0.8-1.6,1.2l-2,11.1c-0.1,0.4,0,0.7,0.1,0.8c0.1,0.2,0.3,0.3,0.6,0.5h-4.7
		c0.3-0.2,0.5-0.3,0.7-0.5s0.3-0.4,0.4-0.8l2.2-12.7c0.1-0.5,0-0.9-0.2-1c-0.2-0.2-0.4-0.3-0.7-0.4l4.2-0.8l-0.4,2.4
		c0.2-0.2,0.5-0.4,0.9-0.7c0.4-0.3,0.8-0.5,1.3-0.8s1-0.5,1.5-0.6c0.5-0.2,1.1-0.3,1.6-0.3c0.6,0,1.2,0.1,1.8,0.3
		c0.6,0.2,1.1,0.5,1.5,0.9s0.7,0.9,0.9,1.5C477.1,358.8,477.1,359.5,477,360.2z M460,360.2l-1.8,10.1c-0.1,0.4,0,0.7,0.1,0.8
		c0.1,0.2,0.3,0.3,0.5,0.5h-4.7c0.3-0.2,0.6-0.3,0.8-0.5c0.2-0.2,0.3-0.4,0.4-0.8l1.6-8.9c0.1-0.5,0.1-1,0.1-1.4
		c0-0.5-0.1-0.9-0.3-1.3c-0.2-0.4-0.5-0.7-0.9-0.9c-0.4-0.2-1-0.4-1.8-0.4c-0.7,0-1.4,0.2-2.1,0.6s-1.2,0.8-1.6,1.2l-2,11.1
		c-0.1,0.4,0,0.7,0.1,0.8c0.1,0.2,0.3,0.3,0.6,0.5h-4.7c0.3-0.2,0.5-0.3,0.7-0.5s0.3-0.4,0.4-0.8l2.2-12.7c0.1-0.5,0-0.9-0.2-1
		c-0.2-0.2-0.4-0.3-0.7-0.4l4.2-0.8l-0.4,2.4c0.2-0.2,0.5-0.4,0.9-0.7c0.4-0.3,0.8-0.5,1.3-0.8s1-0.5,1.5-0.6
		c0.5-0.2,1.1-0.3,1.6-0.3c0.6,0,1.2,0.1,1.8,0.3c0.6,0.2,1.1,0.5,1.5,0.9s0.7,0.9,0.9,1.5C460.1,358.8,460.1,359.5,460,360.2z
		 M439.3,356.3l4.3-0.8l-2.6,14.9c-0.1,0.4,0,0.7,0.1,0.8c0.1,0.2,0.3,0.3,0.6,0.5H437c0.3-0.2,0.5-0.3,0.7-0.5s0.3-0.4,0.4-0.8
		l2.2-12.7c0.1-0.5,0-0.9-0.2-1C439.8,356.5,439.6,356.4,439.3,356.3z M444.7,350.3c-0.1,0.5-0.3,0.9-0.7,1.2
		c-0.4,0.3-0.8,0.5-1.3,0.5s-0.8-0.2-1.1-0.5c-0.3-0.3-0.4-0.8-0.3-1.2c0.1-0.5,0.3-0.8,0.7-1.2c0.4-0.3,0.8-0.5,1.3-0.5
		s0.8,0.2,1.1,0.5C444.7,349.4,444.8,349.8,444.7,350.3z M430.4,359c-0.2-0.3-0.4-0.6-0.7-0.8c-0.3-0.2-0.7-0.3-1.1-0.3
		c-0.7,0-1.3,0.2-1.9,0.6s-1.1,0.8-1.4,1.2l-1.9,10.6c-0.1,0.4,0,0.7,0.1,0.8c0.1,0.2,0.3,0.3,0.5,0.5h-4.7c0.3-0.2,0.5-0.3,0.7-0.5
		s0.3-0.4,0.4-0.8l2.2-12.7c0.1-0.5,0-0.9-0.2-1s-0.5-0.3-0.8-0.4l4.3-0.8l-0.5,3c0.2-0.3,0.5-0.6,0.9-1s0.7-0.7,1.1-1
		s0.8-0.6,1.2-0.8c0.4-0.2,0.7-0.3,1-0.3c0.4,0,0.7,0,0.8,0.1c0.1,0,0.3,0.1,0.5,0.2L430.4,359z M414.4,356.3l4.2-0.8l-2.4,13.4
		c-0.1,0.5-0.1,1,0.1,1.3c0.1,0.3,0.5,0.6,1,0.6l-3.2,1.1c-0.2-0.1-0.3-0.2-0.5-0.4c-0.1-0.1-0.2-0.3-0.3-0.4
		c-0.1-0.2-0.1-0.4-0.1-0.6c0-0.3,0-0.6,0.1-1c-0.6,0.6-1.4,1.1-2.3,1.6s-1.9,0.8-3.1,0.8c-0.5,0-1-0.1-1.6-0.3
		c-0.6-0.2-1.1-0.5-1.5-1s-0.8-1.1-1-2c-0.2-0.8-0.2-1.9,0-3.2l1.4-7.9c0-0.3,0.1-0.5,0-0.6c0-0.2-0.1-0.3-0.2-0.4s-0.2-0.2-0.3-0.2
		c-0.1,0-0.3-0.1-0.4-0.1l4.3-0.8l-1.8,10c-0.3,1.5-0.1,2.6,0.4,3.3c0.6,0.7,1.3,1.1,2.3,1.1c0.8,0,1.6-0.2,2.2-0.5s1.2-0.8,1.8-1.2
		l1.9-10.5c0.1-0.5,0-0.9-0.2-1C414.9,356.5,414.7,356.4,414.4,356.3z M398.6,361c0-0.8-0.2-1.6-0.5-2.2s-0.7-1.1-1.2-1.5
		s-1.1-0.6-1.9-0.5c-0.8,0-1.4,0.2-2,0.7c-0.6,0.4-1.1,1-1.6,1.6c-0.4,0.7-0.8,1.4-1.1,2.3c-0.3,0.9-0.5,1.7-0.7,2.6
		c-0.1,0.9-0.2,1.8-0.1,2.6c0.1,0.8,0.3,1.5,0.5,2.2s0.7,1.1,1.2,1.4s1.1,0.5,1.8,0.5c0.8,0,1.4-0.2,2-0.6s1.1-0.9,1.6-1.6
		c0.5-0.6,0.8-1.4,1.1-2.2c0.3-0.8,0.5-1.7,0.6-2.7C398.7,362.6,398.7,361.8,398.6,361z M401.6,363.7c-0.2,1-0.5,2-1.1,3
		c-0.5,1-1.2,1.9-2,2.6c-0.8,0.8-1.7,1.4-2.7,1.9s-2.1,0.7-3.2,0.7c-1.3,0-2.4-0.3-3.3-0.8s-1.5-1.2-2-2s-0.7-1.7-0.8-2.6
		c-0.1-1-0.1-1.9,0.1-2.8c0.2-1,0.5-2,1-3s1.2-1.9,2-2.6c0.8-0.8,1.7-1.4,2.7-1.9s2.1-0.7,3.3-0.7c1.3,0,2.4,0.2,3.2,0.7
		c0.8,0.5,1.5,1.1,2,1.9s0.8,1.7,0.9,2.6C401.8,361.7,401.8,362.7,401.6,363.7z M384.2,355.9h4.6c-0.4,0.2-0.8,0.4-1.2,0.6
		c-0.3,0.2-0.6,0.6-0.9,1c-0.8,1.4-1.8,3.1-2.9,4.9s-2.3,3.7-3.5,5.6s-2.4,3.9-3.7,5.9c-1.2,2-2.4,3.9-3.4,5.7h-3.1
		c0.4-0.2,0.7-0.4,1-0.6s0.5-0.4,0.7-0.6s0.4-0.4,0.6-0.6s0.3-0.5,0.5-0.8c0.6-0.9,1.3-1.8,2-2.9s1.4-2.2,2.2-3.3l-3-13.4
		c-0.1-0.3-0.2-0.6-0.2-0.7c-0.1-0.2-0.2-0.3-0.3-0.4c-0.1-0.1-0.2-0.2-0.4-0.2c-0.1-0.1-0.3-0.1-0.5-0.2h5.9
		c-0.2,0.1-0.4,0.1-0.6,0.2s-0.3,0.2-0.5,0.3c-0.1,0.1-0.2,0.3-0.3,0.5c0,0.2,0,0.5,0,0.8l2,9.7c1.2-1.9,2.3-3.7,3.3-5.5
		c1-1.7,1.8-3.1,2.5-4.3c0.3-0.6,0.4-1,0.1-1.3C385,356.2,384.6,356,384.2,355.9z M363.9,360.6c-0.1-0.4-0.2-0.9-0.3-1.4
		c-0.1-0.5-0.3-0.9-0.6-1.3c-0.2-0.4-0.5-0.7-0.9-0.9c-0.4-0.2-0.8-0.4-1.3-0.4c-0.4,0-0.8,0.1-1.2,0.2c-0.3,0.1-0.6,0.3-0.9,0.5
		s-0.5,0.4-0.6,0.7c-0.1,0.2-0.2,0.5-0.3,0.7c-0.1,0.7,0,1.3,0.5,1.7c0.4,0.4,1.1,0.9,1.9,1.4c0.5,0.3,1,0.6,1.5,1
		c0.5,0.3,0.9,0.7,1.3,1.1s0.6,0.9,0.8,1.4c0.2,0.5,0.2,1.1,0.1,1.8c-0.1,0.8-0.4,1.5-0.9,2.1s-1,1.1-1.6,1.5s-1.3,0.7-2,0.9
		c-0.7,0.2-1.4,0.3-2,0.3c-1,0-1.8-0.2-2.5-0.5c-0.7-0.4-1.3-0.7-1.8-1.1l0.8-4.4c0,0.6,0.1,1.2,0.3,1.7c0.2,0.6,0.4,1.1,0.7,1.5
		c0.3,0.4,0.6,0.8,1.1,1c0.4,0.3,0.9,0.4,1.5,0.4s1.1-0.1,1.6-0.3c0.4-0.2,0.8-0.5,1.1-0.8c0.3-0.3,0.5-0.6,0.7-0.9
		c0.1-0.3,0.2-0.6,0.3-0.8c0.1-0.4,0.1-0.8,0-1.1c-0.1-0.3-0.3-0.6-0.5-0.8c-0.3-0.3-0.6-0.5-1-0.8s-0.9-0.6-1.4-0.9
		c-0.6-0.4-1.1-0.8-1.5-1.1c-0.4-0.4-0.7-0.7-0.9-1.1c-0.2-0.4-0.3-0.7-0.4-1.1c0-0.4,0-0.8,0.1-1.3c0.1-0.4,0.2-0.9,0.5-1.4
		s0.6-0.9,1.1-1.4c0.5-0.4,1.1-0.8,1.7-1c0.7-0.3,1.5-0.4,2.5-0.4c0.5,0,1,0.1,1.6,0.2s1.3,0.4,2,0.8L363.9,360.6z M352.1,360.6
		c-0.1-0.4-0.2-0.9-0.3-1.4c-0.1-0.5-0.3-0.9-0.6-1.3c-0.2-0.4-0.5-0.7-0.9-0.9c-0.4-0.2-0.8-0.4-1.3-0.4c-0.4,0-0.8,0.1-1.2,0.2
		c-0.3,0.1-0.6,0.3-0.9,0.5s-0.5,0.4-0.6,0.7c-0.1,0.2-0.2,0.5-0.3,0.7c-0.1,0.7,0,1.3,0.5,1.7c0.4,0.4,1.1,0.9,1.9,1.4
		c0.5,0.3,1,0.6,1.5,1c0.5,0.3,0.9,0.7,1.3,1.1s0.6,0.9,0.8,1.4c0.2,0.5,0.2,1.1,0.1,1.8c-0.1,0.8-0.4,1.5-0.9,2.1s-1,1.1-1.6,1.5
		s-1.3,0.7-2,0.9c-0.7,0.2-1.4,0.3-2,0.3c-1,0-1.8-0.2-2.5-0.5c-0.7-0.4-1.3-0.7-1.8-1.1l0.8-4.4c0,0.6,0.1,1.2,0.3,1.7
		c0.2,0.6,0.4,1.1,0.7,1.5c0.3,0.4,0.6,0.8,1.1,1c0.4,0.3,0.9,0.4,1.5,0.4s1.1-0.1,1.6-0.3c0.4-0.2,0.8-0.5,1.1-0.8
		c0.3-0.3,0.5-0.6,0.7-0.9c0.1-0.3,0.2-0.6,0.3-0.8c0.1-0.4,0.1-0.8,0-1.1c-0.1-0.3-0.3-0.6-0.5-0.8c-0.3-0.3-0.6-0.5-1-0.8
		s-0.9-0.6-1.4-0.9c-0.6-0.4-1.1-0.8-1.5-1.1c-0.4-0.4-0.7-0.7-0.9-1.1c-0.2-0.4-0.3-0.7-0.4-1.1c0-0.4,0-0.8,0.1-1.3
		c0.1-0.4,0.2-0.9,0.5-1.4s0.6-0.9,1.1-1.4c0.5-0.4,1.1-0.8,1.7-1c0.7-0.3,1.5-0.4,2.5-0.4c0.5,0,1,0.1,1.6,0.2s1.3,0.4,2,0.8
		L352.1,360.6z M338.2,359.2c-0.1-0.6-0.3-1.1-0.6-1.4c-0.3-0.4-0.6-0.6-1-0.8c-0.4-0.2-0.9-0.3-1.3-0.3c-0.6,0-1.2,0.1-1.7,0.4
		s-1,0.6-1.4,1s-0.8,0.9-1.1,1.5c-0.3,0.5-0.5,1.1-0.7,1.7h7.8C338.3,360.5,338.3,359.8,338.2,359.2z M341.1,362.5H330l-0.2,1
		c-0.2,0.9-0.2,1.7-0.1,2.5s0.3,1.5,0.7,2.1c0.4,0.6,0.8,1.1,1.5,1.4c0.6,0.4,1.4,0.5,2.3,0.5c0.6,0,1.2-0.1,1.8-0.3
		c0.6-0.2,1.2-0.5,1.8-0.8c0.6-0.3,1.1-0.7,1.5-1.1s0.8-0.8,1-1.2c-0.1,0.7-0.4,1.4-0.9,2.1c-0.4,0.7-1,1.2-1.6,1.8
		c-0.6,0.5-1.4,0.9-2.2,1.2c-0.8,0.3-1.7,0.5-2.6,0.5c-1.2,0-2.2-0.2-3.1-0.7s-1.6-1.1-2.1-1.9s-0.9-1.6-1.1-2.6s-0.2-2,0-3
		c0.2-0.9,0.5-1.9,1-2.9s1.2-1.9,2-2.7c0.8-0.8,1.7-1.5,2.8-2c1.1-0.5,2.3-0.8,3.6-0.8c0.7,0,1.5,0.1,2.2,0.4s1.3,0.7,1.8,1.2
		c0.5,0.6,0.9,1.3,1.1,2.2C341.3,360.2,341.3,361.3,341.1,362.5z M325.2,361.3c-0.2-1.3-0.6-2.4-1.2-3.3c-0.7-0.9-1.5-1.3-2.6-1.3
		c-0.8,0-1.6,0.2-2.2,0.6c-0.7,0.4-1.2,0.9-1.7,1.5s-0.9,1.3-1.2,2.1c-0.3,0.8-0.5,1.5-0.7,2.3c-0.2,0.9-0.2,1.7-0.1,2.5
		s0.3,1.5,0.6,2.1c0.3,0.6,0.8,1.1,1.4,1.5s1.3,0.6,2.2,0.6c0.6,0,1.2-0.1,1.7-0.2s1-0.3,1.4-0.5s0.8-0.4,1.1-0.7
		c0.3-0.3,0.6-0.5,0.9-0.7c-0.1,0.3-0.3,0.6-0.6,1.1c-0.3,0.5-0.7,0.9-1.3,1.4c-0.5,0.4-1.2,0.8-1.9,1.1c-0.8,0.3-1.6,0.5-2.6,0.5
		c-1.3,0-2.4-0.3-3.2-0.8c-0.9-0.5-1.5-1.1-2-1.9s-0.8-1.7-0.9-2.6c-0.1-1-0.1-1.9,0.1-2.9c0.1-0.8,0.5-1.7,0.9-2.7
		c0.5-1,1.1-1.9,1.9-2.7c0.8-0.8,1.7-1.5,2.8-2.1c1.1-0.5,2.4-0.8,3.8-0.8c0.5,0,1,0.1,1.5,0.2s1,0.3,1.4,0.4
		c0.5,0.2,0.9,0.4,1.3,0.6L325.2,361.3z M307.5,361c0-0.8-0.2-1.6-0.5-2.2s-0.7-1.1-1.2-1.5s-1.1-0.6-1.9-0.5c-0.8,0-1.4,0.2-2,0.7
		c-0.6,0.4-1.1,1-1.6,1.6c-0.4,0.7-0.8,1.4-1.1,2.3c-0.3,0.9-0.5,1.7-0.7,2.6c-0.1,0.9-0.2,1.8-0.1,2.6c0.1,0.8,0.3,1.5,0.5,2.2
		c0.3,0.6,0.7,1.1,1.2,1.4s1.1,0.5,1.8,0.5c0.8,0,1.4-0.2,2-0.6s1.1-0.9,1.6-1.6c0.5-0.6,0.8-1.4,1.1-2.2c0.3-0.8,0.5-1.7,0.6-2.7
		C307.5,362.6,307.5,361.8,307.5,361z M310.4,363.7c-0.2,1-0.5,2-1.1,3c-0.5,1-1.2,1.9-2,2.6c-0.8,0.8-1.7,1.4-2.7,1.9
		s-2.1,0.7-3.2,0.7c-1.3,0-2.4-0.3-3.3-0.8s-1.5-1.2-2-2s-0.7-1.7-0.8-2.6c-0.1-1-0.1-1.9,0.1-2.8c0.2-1,0.5-2,1-3s1.2-1.9,2-2.6
		c0.8-0.8,1.7-1.4,2.7-1.9s2.1-0.7,3.3-0.7c1.3,0,2.4,0.2,3.2,0.7c0.8,0.5,1.5,1.1,2,1.9s0.8,1.7,0.9,2.6
		C310.6,361.7,310.6,362.7,310.4,363.7z M296.3,359c-0.2-0.3-0.4-0.6-0.7-0.8c-0.3-0.2-0.7-0.3-1.1-0.3c-0.7,0-1.3,0.2-1.9,0.6
		s-1.1,0.8-1.4,1.2l-1.9,10.6c-0.1,0.4,0,0.7,0.1,0.8c0.1,0.2,0.3,0.3,0.5,0.5h-4.7c0.3-0.2,0.5-0.3,0.7-0.5s0.3-0.4,0.4-0.8
		l2.2-12.7c0.1-0.5,0-0.9-0.2-1s-0.5-0.3-0.8-0.4l4.3-0.8l-0.5,3c0.2-0.3,0.5-0.6,0.9-1s0.7-0.7,1.1-1s0.8-0.6,1.2-0.8
		c0.4-0.2,0.7-0.3,1-0.3c0.4,0,0.7,0,0.8,0.1c0.1,0,0.3,0.1,0.5,0.2L296.3,359z M282.8,351.1c-0.7-0.9-1.9-1.3-3.7-1.3
		c-0.4,0-0.7,0-1,0s-0.5,0-0.7,0h-0.6l-1.8,10.1c0.3,0.2,0.9,0.2,1.6,0.2c0.5,0,1-0.1,1.7-0.2s1.4-0.4,2.1-0.7
		c0.7-0.4,1.3-0.9,1.9-1.6s0.9-1.6,1.1-2.8C283.7,353.2,283.5,352,282.8,351.1z M286.8,354.7c-0.2,0.9-0.5,1.7-0.9,2.4
		c-0.5,0.7-0.9,1.3-1.5,1.8c-0.5,0.5-1.1,0.9-1.6,1.2c-0.5,0.3-0.9,0.5-1.2,0.6c-0.3,0.1-0.7,0.2-1.2,0.4c-0.5,0.1-1.1,0.2-1.7,0.3
		c-0.6,0.1-1.3,0.1-2,0s-1.3-0.2-1.9-0.5l-1.6,9.1c-0.1,0.4,0,0.7,0.1,0.9c0.1,0.2,0.3,0.4,0.6,0.6h-5.1c0.3-0.2,0.5-0.4,0.8-0.6
		c0.2-0.2,0.4-0.6,0.5-0.9l3.6-20.2c0.1-0.4,0-0.7-0.1-1s-0.3-0.4-0.6-0.6h6.5c1.7,0,3.1,0.2,4.1,0.6s1.8,0.9,2.3,1.6
		c0.5,0.6,0.8,1.3,1,2.1C286.9,353.4,286.9,354.1,286.8,354.7z"/>
	<path class="st0" d="M465.1,332.6c0.8-0.4,1.4-0.8,1.6-1.3s0.2-1.1,0-1.8c-0.2-0.4-0.7-1.5-1.5-3.3s-1.6-3.9-2.6-6.3h-16.2
		c-0.5,1.2-1,2.3-1.4,3.4c-0.5,1.1-0.9,2.1-1.2,2.9c-0.4,0.9-0.6,1.6-0.9,2.2c-0.2,0.6-0.4,1-0.4,1.1c-0.3,0.7-0.3,1.3-0.2,1.8
		c0.1,0.5,0.6,0.9,1.5,1.3h-7.6c0.9-0.6,1.5-1.1,1.9-1.5s0.7-0.9,1-1.5c0.1-0.3,0.5-1.1,1-2.4c0.6-1.3,1.3-3,2.1-4.9
		c0.8-2,1.8-4.1,2.8-6.5s2-4.8,3.1-7.3c2.4-5.8,5.2-12.2,8.2-19.4c3,7.1,5.7,13.6,8.2,19.4c1,2.5,2.1,4.9,3.1,7.3s1.9,4.6,2.8,6.5
		c0.8,2,1.5,3.6,2.1,4.9s0.9,2.1,1,2.4c0.3,0.7,0.6,1.2,0.9,1.7c0.4,0.4,1.1,0.9,2.2,1.4h-11.5V332.6z M461.6,317.4
		c-0.8-2-1.7-4-2.5-6.1s-1.6-3.9-2.3-5.7c-0.8-2-1.6-4-2.3-5.8c-0.9,2.1-1.7,4.2-2.5,6.3c-0.7,1.8-1.5,3.7-2.3,5.7s-1.5,3.9-2.3,5.6
		H461.6z"/>
	<path class="st0" d="M491.8,296.9c-0.1-0.5-0.3-1.1-0.6-1.8c-0.3-0.6-0.6-1.2-1-1.7s-0.8-0.9-1.3-1.3c-0.5-0.3-1-0.5-1.5-0.5
		c-1,0-1.9,0.3-2.4,0.8c-0.6,0.5-1,1.1-1.3,1.8c-0.3,0.7-0.4,1.4-0.5,2.1s-0.1,1.3-0.1,1.7v5.9h8.3v2.4h-8.3v24
		c0,0.7,0.2,1.2,0.5,1.5s0.8,0.6,1.3,0.9h-8.8c0.5-0.3,0.9-0.6,1.2-0.9c0.3-0.3,0.5-0.8,0.5-1.5v-24h-3.5v-2.4h3.5v-5.3
		c0-1.2,0.2-2.4,0.5-3.5s0.8-2.1,1.5-2.9s1.6-1.5,2.7-2s2.4-0.8,3.9-0.8c1,0,2,0.1,2.9,0.3c0.9,0.2,1.7,0.6,2.6,1.2v6L491.8,296.9
		L491.8,296.9z"/>
	<path class="st0" d="M507,309.4c-0.5-0.6-1-1.1-1.6-1.4c-0.6-0.4-1.3-0.5-2.1-0.5c-1.2,0-2.3,0.4-3.2,1.1c-0.9,0.8-1.7,1.5-2.3,2.3
		v19.4c0,0.7,0.2,1.2,0.5,1.5s0.7,0.6,1.2,0.9h-8.7c0.5-0.3,0.9-0.6,1.2-0.9c0.3-0.3,0.4-0.8,0.4-1.5v-23.2c0-1-0.2-1.6-0.7-1.8
		c-0.5-0.3-1-0.5-1.5-0.7l7.7-1.5v5.5c0.3-0.5,0.8-1.1,1.3-1.8c0.5-0.6,1.1-1.3,1.8-1.8c0.6-0.6,1.3-1,1.9-1.4
		c0.6-0.4,1.2-0.5,1.8-0.5c0.8,0,1.2,0,1.5,0.1c0.2,0.1,0.5,0.2,0.9,0.4L507,309.4L507,309.4z"/>
	<path class="st0" d="M509.8,332.6c0.5-0.3,0.8-0.6,1.2-0.9c0.3-0.3,0.5-0.8,0.5-1.5V307c0-1-0.2-1.6-0.7-1.8
		c-0.5-0.3-1-0.5-1.5-0.7l7.6-1.5v27.3c0,0.7,0.1,1.2,0.4,1.5c0.3,0.3,0.7,0.6,1.2,0.9h-8.7V332.6z"/>
	<path class="st0" d="M517.1,293.5c0,0.9-0.3,1.6-0.9,2.3c-0.6,0.6-1.3,0.9-2.2,0.9c-0.8,0-1.6-0.3-2.2-0.9
		c-0.6-0.6-0.9-1.4-0.9-2.3c0-0.8,0.3-1.5,0.9-2.1c0.6-0.6,1.4-0.9,2.2-0.9s1.6,0.3,2.2,0.9C516.8,291.9,517.1,292.6,517.1,293.5z"
		/>
	<path class="st0" d="M546.1,325.7c0,0.5-0.3,1.2-0.7,2c-0.4,0.9-1,1.7-1.9,2.5c-0.8,0.8-1.9,1.5-3.2,2.1s-2.8,0.9-4.6,0.9
		c-2.4,0-4.4-0.5-6.2-1.4c-1.7-0.9-3.2-2.1-4.3-3.5s-1.9-3-2.5-4.8c-0.5-1.8-0.8-3.5-0.8-5.3c0-1.5,0.3-3.2,0.8-5s1.4-3.4,2.6-4.9
		c1.2-1.5,2.7-2.8,4.5-3.8c1.9-1,4.1-1.5,6.7-1.5c1,0,1.9,0.1,2.9,0.3c1,0.2,1.8,0.5,2.6,0.8c0.9,0.3,1.8,0.7,2.6,1.1v8.5
		c-0.7-2.4-1.8-4.4-3.3-6s-3.2-2.4-5.2-2.4c-1.5,0-2.8,0.4-3.9,1.1c-1.1,0.7-2,1.7-2.7,2.8c-0.7,1.1-1.2,2.4-1.6,3.9
		c-0.3,1.4-0.5,2.8-0.5,4.2c0,1.6,0.2,3.1,0.6,4.6c0.4,1.5,1,2.8,1.8,3.9s1.8,2,3,2.7s2.6,1,4.3,1c1.1,0,2.1-0.1,3-0.4
		s1.7-0.6,2.4-1s1.4-0.8,1.9-1.3C545.3,326.5,545.8,326.1,546.1,325.7z"/>
	<path class="st0" d="M567.3,333.3c-0.7-0.5-1.2-1-1.6-1.5c-0.4-0.6-0.6-1.6-0.6-3.1c-0.5,0.5-1.1,1-1.7,1.6c-0.6,0.5-1.4,1-2.2,1.5
		c-0.8,0.4-1.7,0.8-2.7,1.1c-1,0.3-2,0.4-3.1,0.4c-1.4,0-2.5-0.3-3.5-0.8s-1.7-1.2-2.3-2s-1-1.6-1.3-2.5s-0.4-1.6-0.4-2.3
		c0-1.2,0.3-2.4,0.9-3.7c0.6-1.3,1.7-2.4,3.3-3.4c0.8-0.5,1.9-0.9,3.1-1.3c1.3-0.4,2.5-0.8,3.8-1.2c1.3-0.4,2.4-0.8,3.5-1.2
		c1.1-0.4,1.8-0.8,2.3-1.3c0,0,0.1-0.2,0.1-0.5s0.1-0.6,0.1-0.8c0-0.3,0-0.6,0-0.8c0-0.3,0-0.4,0-0.5c0-0.7-0.1-1.3-0.3-2
		c-0.2-0.6-0.5-1.2-0.9-1.8c-0.4-0.5-1-0.9-1.7-1.3c-0.7-0.3-1.5-0.5-2.5-0.5c-1.3,0-2.5,0.2-3.4,0.7c-1,0.5-1.8,1.1-2.5,1.9
		s-1.3,1.7-1.8,2.7s-0.9,2.1-1.3,3.2l-0.1-7.8c0.6-0.4,1.2-0.8,1.8-1.1c0.6-0.4,1.3-0.7,2.1-1s1.6-0.5,2.6-0.7s2.1-0.3,3.3-0.3
		c0.9,0,1.9,0.1,3.1,0.3c1.1,0.2,2.2,0.6,3.2,1.2s1.8,1.5,2.5,2.6s1,2.6,1,4.4v16.8c0,0.8,0.1,1.4,0.2,1.9c0.1,0.5,0.7,0.8,1.7,1
		L567.3,333.3z M565,316.3c-1,0.5-2,0.9-3,1.2c-1,0.3-2.2,0.7-3.7,1.2s-2.7,1.3-3.7,2.1c-1,0.9-1.5,2.1-1.5,3.7c0,1.7,0.4,3,1.3,3.9
		c0.9,0.9,2,1.3,3.5,1.3s2.9-0.3,4.1-0.9c1.2-0.6,2.2-1.4,3.1-2.3L565,316.3L565,316.3z"/>
</g>
</svg>