<svg width="484" height="453" viewBox="0 0 484 453" fill="none" xmlns="http://www.w3.org/2000/svg">
<g filter="url(#filter0_d)">
<rect x="193.134" y="62.6693" width="267.791" height="182.585" fill="white"/>
<rect x="200.88" y="134.517" width="164.257" height="55.5401" rx="2.15409" fill="white"/>
<path d="M229.535 145.846L223.313 152.486V182.696H355.52L327.134 164.105L321.691 170.413L308.47 164.105L292.139 176.389L283.973 164.105L276.196 158.461V152.486L256.365 145.846L252.866 139.87L243.144 145.846L233.035 152.486L229.535 145.846Z" fill="#FFC1C1"/>
<rect x="210.492" y="140.539" width="5.37361" height="1.3434" rx="0.671701" fill="#E9EAEC"/>
<rect x="210.492" y="146.584" width="5.37361" height="1.3434" rx="0.671701" fill="#E9EAEC"/>
<rect x="210.492" y="152.63" width="5.37361" height="1.3434" rx="0.671701" fill="#E9EAEC"/>
<rect x="210.492" y="158.675" width="5.37361" height="1.3434" rx="0.671701" fill="#E9EAEC"/>
<rect x="210.492" y="164.72" width="5.37361" height="1.3434" rx="0.671701" fill="#E9EAEC"/>
<rect x="210.492" y="170.766" width="5.37361" height="1.3434" rx="0.671701" fill="#E9EAEC"/>
<rect x="210.492" y="176.811" width="5.37361" height="1.3434" rx="0.671701" fill="#E9EAEC"/>
<rect x="210.492" y="182.856" width="5.37361" height="1.3434" rx="0.671701" fill="#E9EAEC"/>
<rect x="234.001" y="140.539" width="110.831" height="0.671701" fill="#F4F4F5"/>
<rect x="234.001" y="146.584" width="110.831" height="0.671701" fill="#F4F4F5"/>
<rect x="234.001" y="152.63" width="110.831" height="0.671701" fill="#F4F4F5"/>
<rect x="234.001" y="158.675" width="110.831" height="0.671701" fill="#F4F4F5"/>
<rect x="234.001" y="164.72" width="110.831" height="0.671701" fill="#F4F4F5"/>
<rect x="234.001" y="170.766" width="110.831" height="0.671701" fill="#F4F4F5"/>
<rect x="234.001" y="176.811" width="110.831" height="0.671701" fill="#F4F4F5"/>
<rect x="234.001" y="182.856" width="110.831" height="0.671701" fill="#F4F4F5"/>
<path d="M224.116 153.253L229.2 146.562L232.72 153.253L242.888 146.562L252.666 140.539L256.185 146.562L276.131 153.253V159.276L283.953 164.963L292.165 177.343L308.591 164.963L321.888 171.32L327.363 164.963L355.521 182.696" stroke="#FF525A" stroke-width="1.69517" stroke-linecap="round" stroke-linejoin="round"/>
<rect x="394.53" y="132.384" width="43.1565" height="15.5187" fill="white"/>
<rect x="394.531" y="147.876" width="43.1565" height="15.2736" fill="#FED5BD"/>
<rect x="394.531" y="163.368" width="43.1565" height="15.5187" fill="white"/>
<rect x="394.531" y="178.86" width="43.1565" height="15.2736" fill="#FED5BD"/>
<rect x="394.531" y="193.245" width="43.1565" height="16.9736" fill="white"/>
<rect x="394.531" y="209.844" width="43.1565" height="15.2736" fill="#FED5BD"/>
<rect x="399.435" y="139.023" width="16.9699" height="2.82229" rx="1.41114" fill="#C5C8CD"/>
<rect x="424.886" y="139.023" width="7.74603" height="2.82229" rx="1.41114" fill="#C5C8CD"/>
<rect x="399.435" y="153.409" width="16.9699" height="2.82229" rx="1.41114" fill="white"/>
<rect x="424.886" y="153.409" width="7.74603" height="2.82229" rx="1.41114" fill="white"/>
<rect x="399.435" y="168.901" width="16.9699" height="2.82229" rx="1.41114" fill="#C5C8CD"/>
<rect x="424.886" y="168.901" width="7.74603" height="2.82229" rx="1.41114" fill="#C5C8CD"/>
<rect x="399.435" y="184.393" width="16.9699" height="2.82229" rx="1.41114" fill="white"/>
<rect x="424.886" y="184.393" width="7.74603" height="2.82229" rx="1.41114" fill="white"/>
<rect x="399.435" y="200.991" width="16.9699" height="2.82229" rx="1.41114" fill="#C5C8CD"/>
<rect x="424.886" y="200.991" width="7.74603" height="2.82229" rx="1.41114" fill="#C5C8CD"/>
<rect x="399.435" y="216.483" width="16.9699" height="2.82229" rx="1.41114" fill="white"/>
<rect x="424.886" y="216.483" width="7.74603" height="2.82229" rx="1.41114" fill="white"/>
<circle cx="416.148" cy="103.099" r="22.798" transform="rotate(-131.751 416.148 103.099)" fill="#D43442" stroke="white" stroke-width="2.26721"/>
<mask id="path-43-inside-1" fill="white">
<path d="M400.212 85.2447C396.011 88.9939 393.267 94.104 392.462 99.6764C391.657 105.249 392.842 110.927 395.809 115.711C398.777 120.496 403.336 124.082 408.686 125.837C414.035 127.593 419.832 127.406 425.058 125.31C430.283 123.213 434.602 119.342 437.256 114.376C439.909 109.41 440.726 103.668 439.564 98.1586C438.402 92.6496 435.334 87.7268 430.901 84.2558C426.468 80.7848 420.953 78.988 415.326 79.1812L416.148 103.099L400.212 85.2447Z"/>
</mask>
<path d="M400.212 85.2447C396.011 88.9939 393.267 94.104 392.462 99.6764C391.657 105.249 392.842 110.927 395.809 115.711C398.777 120.496 403.336 124.082 408.686 125.837C414.035 127.593 419.832 127.406 425.058 125.31C430.283 123.213 434.602 119.342 437.256 114.376C439.909 109.41 440.726 103.668 439.564 98.1586C438.402 92.6496 435.334 87.7268 430.901 84.2558C426.468 80.7848 420.953 78.988 415.326 79.1812L416.148 103.099L400.212 85.2447Z" fill="#FF525A" stroke="white" stroke-width="4.53441" mask="url(#path-43-inside-1)"/>
<mask id="path-44-inside-2" fill="white">
<path d="M400.212 85.2447C397.208 87.9255 394.929 91.3207 393.587 95.1161C392.244 98.9114 391.88 102.984 392.529 106.957C393.178 110.931 394.819 114.676 397.3 117.847C399.781 121.017 403.022 123.511 406.722 125.096C410.423 126.682 414.464 127.308 418.47 126.917C422.477 126.527 426.321 125.131 429.645 122.861C432.97 120.59 435.668 117.517 437.489 113.927C439.311 110.337 440.197 106.345 440.067 102.321L416.148 103.099L400.212 85.2447Z"/>
</mask>
<path d="M400.212 85.2447C397.208 87.9255 394.929 91.3207 393.587 95.1161C392.244 98.9114 391.88 102.984 392.529 106.957C393.178 110.931 394.819 114.676 397.3 117.847C399.781 121.017 403.022 123.511 406.722 125.096C410.423 126.682 414.464 127.308 418.47 126.917C422.477 126.527 426.321 125.131 429.645 122.861C432.97 120.59 435.668 117.517 437.489 113.927C439.311 110.337 440.197 106.345 440.067 102.321L416.148 103.099L400.212 85.2447Z" fill="#FFC1C1" stroke="white" stroke-width="4.53441" mask="url(#path-44-inside-2)"/>
<rect x="209.732" y="80.3745" width="122.116" height="7.04279" rx="2.48204" fill="#FED5BD"/>
<rect x="209.732" y="92.9502" width="139.822" height="3.72306" rx="1.86153" fill="#E9EAEC"/>
<rect x="236.29" y="202.098" width="139.822" height="3.72306" rx="1.86153" fill="#E9EAEC"/>
<rect x="209.732" y="102.206" width="145.53" height="3.72306" rx="1.86153" fill="#E9EAEC"/>
<rect x="236.29" y="211.354" width="145.53" height="3.72306" rx="1.86153" fill="#E9EAEC"/>
<rect x="236.29" y="220.91" width="92.4146" height="3.72306" rx="1.86153" fill="#E9EAEC"/>
<rect x="209.732" y="111.462" width="139.822" height="3.72306" rx="1.86153" fill="#E9EAEC"/>
<rect x="209.732" y="120.718" width="69.0007" height="3.72306" rx="1.86153" fill="#E9EAEC"/>
<rect x="209.732" y="202.098" width="22.1315" height="22.1315" fill="#FED5BD"/>
</g>
<g filter="url(#filter1_d)">
<g clip-path="url(#clip0)">
<rect x="201.986" y="194.352" width="322.014" height="228.724" rx="4.48571" fill="white"/>
<rect x="219.93" y="207.248" width="36.4464" height="5.60714" rx="1.12143" fill="#E9EAEC"/>
<rect x="201.986" y="194.352" width="322.014" height="18.942" fill="#283246"/>
<rect x="471.91" y="200.981" width="34.0956" height="5.68259" rx="1.12143" fill="#E9EAEC"/>
<rect x="213.352" y="200.981" width="22.7304" height="5.68259" rx="1.12143" fill="#E9EAEC"/>
<rect x="269.23" y="213.294" width="209.782" height="0.947099" transform="rotate(90 269.23 213.294)" fill="#E9EAEC"/>
<rect x="293.382" y="251.178" width="78.1357" height="0.947095" transform="rotate(90 293.382 251.178)" fill="#BBC4FF"/>
<rect x="316.111" y="278.644" width="23.6775" height="0.947098" transform="rotate(90 316.111 278.644)" fill="#BBC4FF"/>
<rect x="201.986" y="337.364" width="67.244" height="0.947099" fill="#E9EAEC"/>
<rect x="268.757" y="375.248" width="255.243" height="12.3123" fill="#E9EAEC"/>
<rect x="213.352" y="228.921" width="34.5691" height="4.73549" rx="0.947099" fill="#BBC4FF"/>
<rect x="213.352" y="349.676" width="34.5691" height="4.73549" rx="0.947099" fill="#E9EAEC"/>
<rect x="278.228" y="398.925" width="193.682" height="4.73549" rx="0.947099" fill="#E9EAEC"/>
<rect x="278.228" y="407.449" width="115.073" height="4.73549" rx="0.947099" fill="#E9EAEC"/>
<rect x="213.352" y="243.601" width="26.9923" height="4.73549" rx="0.947099" fill="#BBC4FF"/>
<rect x="213.352" y="364.356" width="26.9923" height="4.73549" rx="0.947099" fill="#E9EAEC"/>
<rect x="219.981" y="258.281" width="36.4633" height="4.73549" rx="0.947099" fill="#BBC4FF"/>
<rect x="213.352" y="379.036" width="41.1988" height="4.73549" rx="0.947099" fill="#E9EAEC"/>
<rect x="219.981" y="272.961" width="32.2014" height="4.73549" rx="0.947099" fill="#BBC4FF"/>
<rect x="213.352" y="393.716" width="36.4633" height="4.73549" rx="0.947099" fill="#E9EAEC"/>
<rect x="228.505" y="287.641" width="27.9394" height="4.73549" rx="0.947099" fill="#BBC4FF"/>
<rect x="228.505" y="302.321" width="21.7833" height="4.73549" rx="0.947099" fill="#BBC4FF"/>
<rect x="228.505" y="317.001" width="24.6246" height="4.73549" rx="0.947099" fill="#BBC4FF"/>
<rect x="224.243" y="289.062" width="1.8942" height="1.8942" fill="#BBC4FF"/>
<rect x="224.243" y="302.795" width="1.8942" height="1.8942" fill="#BBC4FF"/>
<rect x="224.243" y="318.422" width="1.8942" height="1.8942" fill="#BBC4FF"/>
<rect x="304.747" y="235.077" width="116.967" height="4.73549" rx="1.8942" fill="#9BD7F9"/>
<path d="M288.173 239.008V236.213L297.17 231.289V234.505L291.01 237.579L291.093 237.412V237.809L291.01 237.642L297.17 240.716V243.932L288.173 239.008Z" fill="#BBC4FF"/>
<path d="M438.288 236.212L438.288 239.008L429.291 243.932L429.291 240.715L435.451 237.642L435.368 237.809L435.368 237.412L435.451 237.578L429.291 234.505L429.291 231.289L438.288 236.212Z" fill="#BBC4FF"/>
<rect x="327.477" y="261.596" width="116.967" height="4.73549" rx="1.8942" fill="#9BD7F9"/>
<path d="M310.903 265.527V262.731L319.901 257.807V261.024L313.741 264.097L313.824 263.93V264.328L313.741 264.161L319.901 267.234V270.451L310.903 265.527Z" fill="#BBC4FF"/>
<path d="M461.019 262.874L461.019 265.669L452.021 270.593L452.021 267.377L458.181 264.303L458.098 264.47L458.098 264.073L458.181 264.24L452.021 261.166L452.021 257.95L461.019 262.874Z" fill="#BBC4FF"/>
<rect x="350.207" y="288.115" width="116.967" height="4.73549" rx="1.8942" fill="#9BD7F9"/>
<path d="M333.633 292.046V289.25L342.63 284.326V287.543L336.47 290.616L336.553 290.449V290.846L336.47 290.68L342.63 293.753V296.97L333.633 292.046Z" fill="#BBC4FF"/>
<path d="M483.748 289.393L483.748 292.188L474.751 297.112L474.751 293.896L480.911 290.822L480.828 290.989L480.828 290.592L480.911 290.759L474.751 287.685L474.751 284.469L483.748 289.393Z" fill="#BBC4FF"/>
<rect x="327.477" y="314.633" width="116.967" height="4.73549" rx="1.8942" fill="#9BD7F9"/>
<path d="M310.903 318.091V315.295L319.901 310.371V313.588L313.741 316.661L313.824 316.494V316.892L313.741 316.725L319.901 319.798V323.015L310.903 318.091Z" fill="#BBC4FF"/>
<path d="M461.019 315.438L461.019 318.233L452.021 323.157L452.021 319.941L458.181 316.867L458.098 317.034L458.098 316.637L458.181 316.804L452.021 313.73L452.021 310.514L461.019 315.438Z" fill="#BBC4FF"/>
<rect x="304.747" y="341.152" width="116.967" height="4.73549" rx="1.8942" fill="#9BD7F9"/>
<path d="M288.173 344.61V341.814L297.17 336.89V340.107L291.01 343.18L291.093 343.013V343.41L291.01 343.244L297.17 346.317V349.534L288.173 344.61Z" fill="#BBC4FF"/>
<path d="M438.288 341.957L438.288 344.752L429.291 349.676L429.291 346.46L435.451 343.386L435.368 343.553L435.368 343.156L435.451 343.323L429.291 340.249L429.291 337.033L438.288 341.957Z" fill="#BBC4FF"/>
</g>
</g>
<g filter="url(#filter2_d)">
<rect x="36" y="20.6194" width="299.6" height="372.194" fill="white"/>
<rect x="54.8115" y="139.023" width="169.306" height="36.517" fill="#F0F2FF"/>
<ellipse cx="86.1995" cy="44.9602" rx="12.5755" ry="12.5782" fill="#BBC4FF"/>
<rect x="113.46" y="35.0049" width="107.59" height="4.19182" rx="2.09591" fill="#E9EAEC"/>
<rect x="113.46" y="53.1732" width="107.59" height="4.19182" rx="2.09591" fill="#E9EAEC"/>
<rect x="62.5479" y="128.233" width="107.59" height="4.19182" rx="2.09591" fill="#6352D1"/>
<rect x="62.5479" y="148.905" width="143" height="4.19182" rx="2.09591" fill="#6352D1"/>
<rect x="62.5479" y="160.048" width="62.8773" height="4.19182" rx="2.09591" fill="#6352D1"/>
<rect x="62.5479" y="360.366" width="154.475" height="4.19182" rx="2.09591" fill="#6352D1"/>
<rect x="139.397" y="108.667" width="62.8773" height="4.19182" rx="2.09591" fill="#6352D1"/>
<rect x="121.206" y="67.6122" width="128.501" height="4.19182" rx="2.09591" fill="#41339B"/>
<rect x="55.082" y="81.6974" width="259.526" height="19.0869" fill="#F0F2FF"/>
<rect x="113.46" y="44.7879" width="143.919" height="4.19182" rx="2.09591" fill="#E9EAEC"/>
<path d="M314.608 81.6974H55.082V375.636H314.608V81.6974Z" stroke="#BBC4FF" stroke-width="1.39727"/>
<rect x="54.8115" y="100.293" width="260.045" height="22.1315" stroke="#BBC4FF" stroke-width="1.39727"/>
<rect x="54.8115" y="122.424" width="169.306" height="16.5986" stroke="#BBC4FF" stroke-width="1.39727"/>
<rect x="54.8115" y="139.023" width="169.306" height="126.15" stroke="#BBC4FF" stroke-width="1.39727"/>
<rect x="131.015" y="100.572" width="1.39727" height="21.7792" fill="#BBC4FF"/>
<rect x="210.657" y="100.572" width="1.39727" height="21.7792" fill="#BBC4FF"/>
<rect x="73.7256" y="189.726" width="107.59" height="4.19182" rx="2.09591" fill="#9EA3AC"/>
<rect x="73.7256" y="199.509" width="134.597" height="4.19182" rx="2.09591" fill="#9EA3AC"/>
<rect x="73.7256" y="209.292" width="107.59" height="4.19182" rx="2.09591" fill="#9EA3AC"/>
<rect x="73.7256" y="228.858" width="71.2609" height="4.19182" fill="#E9EAEC"/>
<rect x="73.7256" y="248.424" width="93.6173" height="4.19182" fill="#E9EAEC"/>
<rect x="61.849" y="228.159" width="6.98636" height="6.98817" stroke="#BBC4FF" stroke-width="1.39727"/>
<rect x="61.849" y="246.327" width="6.98636" height="6.98817" stroke="#BBC4FF" stroke-width="1.39727"/>
<rect x="73.7236" y="275.617" width="107.59" height="4.19182" rx="2.09591" fill="#9EA3AC"/>
<rect x="73.7236" y="285.4" width="152.303" height="4.19182" rx="2.09591" fill="#9EA3AC"/>
<rect x="73.7236" y="295.183" width="107.59" height="4.19182" rx="2.09591" fill="#9EA3AC"/>
<rect x="73.7236" y="314.749" width="71.2609" height="4.19182" fill="#E9EAEC"/>
<rect x="178.521" y="314.749" width="71.2609" height="4.19182" fill="#E9EAEC"/>
<rect x="73.7236" y="334.315" width="93.6173" height="4.19182" fill="#E9EAEC"/>
<rect x="178.521" y="334.315" width="93.6173" height="4.19182" fill="#E9EAEC"/>
<rect x="55.082" y="264.932" width="259.526" height="85.891" stroke="#BBC4FF" stroke-width="1.39727"/>
<rect x="61.8471" y="314.05" width="6.98636" height="6.98817" stroke="#BBC4FF" stroke-width="1.39727"/>
<rect x="61.8471" y="332.219" width="6.98636" height="6.98817" stroke="#BBC4FF" stroke-width="1.39727"/>
<rect x="86.3018" y="88.5894" width="197.015" height="4.19182" rx="2.09591" fill="#BBC4FF"/>
<circle cx="267.866" cy="155.108" r="22.798" transform="rotate(-131.751 267.866 155.108)" fill="#41339B" stroke="white" stroke-width="2.26721"/>
<mask id="path-134-inside-3" fill="white">
<path d="M251.93 137.254C247.73 141.003 244.986 146.113 244.181 151.685C243.376 157.258 244.561 162.936 247.528 167.72C250.495 172.505 255.055 176.091 260.404 177.846C265.754 179.602 271.551 179.415 276.777 177.319C282.002 175.222 286.321 171.351 288.974 166.385C291.627 161.419 292.445 155.677 291.283 150.168C290.12 144.659 287.053 139.736 282.62 136.265C278.187 132.794 272.672 130.997 267.045 131.19L267.866 155.108L251.93 137.254Z"/>
</mask>
<path d="M251.93 137.254C247.73 141.003 244.986 146.113 244.181 151.685C243.376 157.258 244.561 162.936 247.528 167.72C250.495 172.505 255.055 176.091 260.404 177.846C265.754 179.602 271.551 179.415 276.777 177.319C282.002 175.222 286.321 171.351 288.974 166.385C291.627 161.419 292.445 155.677 291.283 150.168C290.12 144.659 287.053 139.736 282.62 136.265C278.187 132.794 272.672 130.997 267.045 131.19L267.866 155.108L251.93 137.254Z" fill="#6352D1" stroke="white" stroke-width="4.53441" mask="url(#path-134-inside-3)"/>
<mask id="path-135-inside-4" fill="white">
<path d="M251.93 137.254C248.927 139.934 246.648 143.33 245.305 147.125C243.962 150.92 243.599 154.993 244.248 158.966C244.897 162.94 246.538 166.685 249.019 169.856C251.5 173.026 254.741 175.52 258.441 177.105C262.142 178.691 266.182 179.317 270.189 178.926C274.196 178.536 278.04 177.14 281.364 174.87C284.689 172.599 287.386 169.526 289.208 165.936C291.03 162.346 291.916 158.354 291.785 154.33L267.866 155.108L251.93 137.254Z"/>
</mask>
<path d="M251.93 137.254C248.927 139.934 246.648 143.33 245.305 147.125C243.962 150.92 243.599 154.993 244.248 158.966C244.897 162.94 246.538 166.685 249.019 169.856C251.5 173.026 254.741 175.52 258.441 177.105C262.142 178.691 266.182 179.317 270.189 178.926C274.196 178.536 278.04 177.14 281.364 174.87C284.689 172.599 287.386 169.526 289.208 165.936C291.03 162.346 291.916 158.354 291.785 154.33L267.866 155.108L251.93 137.254Z" fill="#BBC4FF" stroke="white" stroke-width="4.53441" mask="url(#path-135-inside-4)"/>
<rect x="225.225" y="186.606" width="88.5261" height="15.3169" fill="#C5C8CD"/>
<rect x="225.225" y="202.142" width="88.5261" height="15.5626" fill="white"/>
<rect x="225.225" y="217.678" width="88.5261" height="15.3169" fill="#C5C8CD"/>
<rect x="225.225" y="232.104" width="88.5261" height="17.0216" fill="white"/>
<rect x="225.225" y="248.749" width="88.5261" height="15.3169" fill="#C5C8CD"/>
<rect x="235.284" y="192.154" width="34.8101" height="2.83028" rx="1.41514" fill="white"/>
<rect x="287.491" y="192.154" width="15.8893" height="2.83028" rx="1.41514" fill="white"/>
<rect x="235.284" y="207.69" width="34.8101" height="2.83028" rx="1.41514" fill="#C5C8CD"/>
<rect x="287.491" y="207.69" width="15.8893" height="2.83028" rx="1.41514" fill="#C5C8CD"/>
<rect x="235.284" y="223.226" width="34.8101" height="2.83028" rx="1.41514" fill="white"/>
<rect x="287.491" y="223.226" width="15.8893" height="2.83028" rx="1.41514" fill="white"/>
<rect x="235.284" y="239.872" width="34.8101" height="2.83028" rx="1.41514" fill="#C5C8CD"/>
<rect x="287.491" y="239.872" width="15.8893" height="2.83028" rx="1.41514" fill="#C5C8CD"/>
<rect x="235.284" y="255.408" width="34.8101" height="2.83028" rx="1.41514" fill="white"/>
<rect x="287.491" y="255.408" width="15.8893" height="2.83028" rx="1.41514" fill="white"/>
</g>
<defs>
<filter id="filter0_d" x="153.297" y="31.6852" width="347.465" height="262.259" filterUnits="userSpaceOnUse" color-interpolation-filters="sRGB">
<feFlood flood-opacity="0" result="BackgroundImageFix"/>
<feColorMatrix in="SourceAlpha" type="matrix" values="0 0 0 0 0 0 0 0 0 0 0 0 0 0 0 0 0 0 127 0"/>
<feOffset dy="8.85261"/>
<feGaussianBlur stdDeviation="19.9184"/>
<feColorMatrix type="matrix" values="0 0 0 0 0 0 0 0 0 0 0 0 0 0 0 0 0 0 0.1 0"/>
<feBlend mode="normal" in2="BackgroundImageFix" result="effect1_dropShadow"/>
<feBlend mode="normal" in="SourceGraphic" in2="effect1_dropShadow" result="shape"/>
</filter>
<filter id="filter1_d" x="165.986" y="174.352" width="394.014" height="300.724" filterUnits="userSpaceOnUse" color-interpolation-filters="sRGB">
<feFlood flood-opacity="0" result="BackgroundImageFix"/>
<feColorMatrix in="SourceAlpha" type="matrix" values="0 0 0 0 0 0 0 0 0 0 0 0 0 0 0 0 0 0 127 0"/>
<feOffset dy="16"/>
<feGaussianBlur stdDeviation="18"/>
<feColorMatrix type="matrix" values="0 0 0 0 0 0 0 0 0 0 0 0 0 0 0 0 0 0 0.08 0"/>
<feBlend mode="normal" in2="BackgroundImageFix" result="effect1_dropShadow"/>
<feBlend mode="normal" in="SourceGraphic" in2="effect1_dropShadow" result="shape"/>
</filter>
<filter id="filter2_d" x="0" y="0.619385" width="371.6" height="444.194" filterUnits="userSpaceOnUse" color-interpolation-filters="sRGB">
<feFlood flood-opacity="0" result="BackgroundImageFix"/>
<feColorMatrix in="SourceAlpha" type="matrix" values="0 0 0 0 0 0 0 0 0 0 0 0 0 0 0 0 0 0 127 0"/>
<feOffset dy="16"/>
<feGaussianBlur stdDeviation="18"/>
<feColorMatrix type="matrix" values="0 0 0 0 0 0 0 0 0 0 0 0 0 0 0 0 0 0 0.18 0"/>
<feBlend mode="normal" in2="BackgroundImageFix" result="effect1_dropShadow"/>
<feBlend mode="normal" in="SourceGraphic" in2="effect1_dropShadow" result="shape"/>
</filter>
<clipPath id="clip0">
<rect x="201.986" y="194.352" width="322.014" height="228.724" rx="4.48571" fill="white"/>
</clipPath>
</defs>
</svg>
